<?xml version="1.0" standalone="no"?><!DOCTYPE svg PUBLIC "-//W3C//DTD SVG 1.1//EN" "http://www.w3.org/Graphics/SVG/1.1/DTD/svg11.dtd"><svg t="1769311810524" class="icon" viewBox="0 0 1024 1024" version="1.1" xmlns="http://www.w3.org/2000/svg" p-id="1963" xmlns:xlink="http://www.w3.org/1999/xlink" width="256" height="256"><path d="M755.2 877.056a152.7808 152.7808 0 0 0 152.7296-152.7296V475.0848h-305.4592v249.2416a152.7296 152.7296 0 0 0 152.7296 152.7296z" fill="#9696E2" p-id="1964"></path><path d="M755.2 902.656a178.5344 178.5344 0 0 1-178.3296-178.3296V475.0848a25.6 25.6 0 0 1 25.6-25.6h305.4592a25.6 25.6 0 0 1 25.6 25.6v249.2416a178.5856 178.5856 0 0 1-178.3296 178.3296z m-127.1296-401.9712v223.6416a127.1296 127.1296 0 0 0 254.2592 0V500.6848z" fill="#434A54" p-id="1965"></path><path d="M732.7232 142.3872h-436.224a176.128 176.128 0 0 0-176.128 176.128v405.8112a152.7296 152.7296 0 0 0 152.7296 152.7296 152.7808 152.7808 0 0 0 152.7296-152.7296v-25.6h306.8928a176.128 176.128 0 0 0 176.128-176.128V318.5152a176.128 176.128 0 0 0-176.128-176.128z" fill="#C9C9F4" p-id="1966"></path><path d="M386.048 157.696v-15.36h-102.4c-90.3168 0-163.4816 78.848-163.4816 176.128v405.8112c0 77.4656 53.504 141.4144 122.88 151.3472 19.6096-1.4848 40.3968-3.4816 62.5152-6.0416l1.1776-0.4096c-73.1136-12.4928-75.6224-77.824-75.6224-155.0848V324.4032C231.3216 189.44 386.048 157.696 386.048 157.696z" fill="#E6E6FF" p-id="1967"></path><path d="M743.0144 142.3872h-64.768v7.6288s121.4976 33.8944 121.4976 154.1632v257.9968c0 26.5216 8.6016 102.8096-67.0208 136.6016h10.24c91.5968 0 165.8368-78.848 165.8368-176.128V318.5152c0.0512-97.28-74.24-176.128-165.7856-176.128z" fill="#B2B2EA" p-id="1968"></path><path d="M273.1008 902.656a178.5344 178.5344 0 0 1-178.3296-178.3296V318.5152a201.9328 201.9328 0 0 1 201.728-201.728h436.224a201.9328 201.9328 0 0 1 201.728 201.728v204.1344a201.9328 201.9328 0 0 1-201.728 201.728H451.4304a178.5344 178.5344 0 0 1-178.3296 178.2784z m23.3984-734.6688a150.6816 150.6816 0 0 0-150.528 150.528v405.8112a127.1296 127.1296 0 0 0 254.2592 0v-25.6a25.6 25.6 0 0 1 25.6-25.6h306.8928a150.6816 150.6816 0 0 0 150.528-150.528V318.5152a150.6816 150.6816 0 0 0-150.528-150.528z" fill="#434A54" p-id="1969"></path><path d="M410.2144 375.7568A26.3168 26.3168 0 0 1 384 349.44V348.16a29.7984 29.7984 0 0 0-29.7984-29.7984A29.7472 29.7472 0 0 0 324.3008 348.16v1.3824a26.3168 26.3168 0 0 1-26.3168 26.3168 30.72 30.72 0 0 0-31.1808 29.0304 29.7984 29.7984 0 0 0 29.7984 30.72h1.3824a26.3168 26.3168 0 0 1 26.3168 26.3168v1.3824a29.7984 29.7984 0 0 0 29.7984 29.7984A29.8496 29.8496 0 0 0 384 463.0528v-1.3824A26.3168 26.3168 0 0 1 410.2144 435.2h1.3824a29.8496 29.8496 0 0 0 29.7984-30.72 30.72 30.72 0 0 0-31.1808-28.7232z" fill="#FFC50B" p-id="1970"></path><path d="M342.0672 389.2736m-32.0512 0a32.0512 32.0512 0 1 0 64.1024 0 32.0512 32.0512 0 1 0-64.1024 0Z" fill="#FFE8C0" p-id="1971"></path><path d="M354.0992 326.8608a26.88 26.88 0 0 1 26.88 26.88v1.2288A23.7056 23.7056 0 0 0 404.48 378.88a27.648 27.648 0 0 1 27.9552 24.32 26.88 26.88 0 0 1-26.7264 29.44H404.48a23.7056 23.7056 0 0 0-23.7056 23.7056v1.2288a26.88 26.88 0 1 1-53.76 0v-1.2288a23.7056 23.7056 0 0 0-23.7056-23.7056H302.08a26.9312 26.9312 0 0 1-26.7776-29.44A27.7504 27.7504 0 0 1 303.5136 378.88a23.7056 23.7056 0 0 0 23.7056-23.7056v-1.2288a26.88 26.88 0 0 1 26.88-26.88m0-51.2a78.1312 78.1312 0 0 0-74.752 55.3984 77.8752 77.8752 0 0 0 0 148.9408 78.08 78.08 0 0 0 149.2992 0 77.824 77.824 0 0 0 0-148.9408 78.1824 78.1824 0 0 0-74.752-55.6032z" fill="#434A54" p-id="1972"></path><path d="M689.3056 404.48m-88.064 0a88.064 88.064 0 1 0 176.128 0 88.064 88.064 0 1 0-176.128 0Z" fill="#FFC50B" p-id="1973"></path><path d="M677.9392 390.7072m-32.0512 0a32.0512 32.0512 0 1 0 64.1024 0 32.0512 32.0512 0 1 0-64.1024 0Z" fill="#FFE8C0" p-id="1974"></path><path d="M689.3056 518.1952A113.7152 113.7152 0 1 1 802.9696 404.48a113.8176 113.8176 0 0 1-113.664 113.7152z m0-176.1792a62.5152 62.5152 0 1 0 62.464 62.464 62.5152 62.5152 0 0 0-62.464-62.464z" fill="#434A54" p-id="1975"></path></svg>
